<?xml version="1.0" encoding="utf-8"?>
<!-- Generator: Adobe Illustrator 23.1.0, SVG Export Plug-In . SVG Version: 6.00 Build 0)  -->
<svg version="1.1" xmlns="http://www.w3.org/2000/svg" xmlns:xlink="http://www.w3.org/1999/xlink" x="0px" y="0px"
	 viewBox="0 0 170.5 28.3" style="enable-background:new 0 0 170.5 28.3;" xml:space="preserve">
<style type="text/css">
	.st0{fill:#CB0772;}
	.st1{fill:#193F7A;}
</style>
<g id="Layer_1">
</g>
<g id="türkiz_x2F_magenta_1_háromszög">
	<polygon class="st0" points="28.3,14.2 0,42.5 0,-14.1 	"/>
	<g>
		<path class="st1" d="M33.5,18.9H30v-3.2h10.8v3.2h-3.4v8.9h-3.9V18.9z"/>
		<path class="st1" d="M45.2,15.7h3.9l4.2,12.1h-3.8l-0.5-1.6h-3.8l-0.5,1.6h-3.8L45.2,15.7z M48.4,23.7l-1.2-4.2l-1.2,4.2H48.4z"/>
		<path class="st1" d="M54.5,15.7h3.7l3.4,5.6c0.2,0.3,0.4,0.9,0.7,1.7c0-0.3-0.1-0.5-0.1-0.8c0-0.3,0-0.6,0-0.8v-5.7h3.7v12.1h-3.7
			l-3.4-5.6c-0.1-0.2-0.2-0.4-0.3-0.7s-0.3-0.6-0.4-1.1c0.1,0.3,0.1,0.6,0.1,0.9s0,0.5,0,0.8v5.7h-3.7V15.7z"/>
		<path class="st1" d="M68.1,15.7h9.1v3H72v1.9h4.2v2.9H72v4.2h-3.9V15.7z"/>
		<path class="st1" d="M78.2,21.8c0-1,0.1-1.9,0.4-2.7c0.3-0.8,0.7-1.4,1.3-2s1.2-1,2-1.3c0.8-0.3,1.6-0.4,2.6-0.4s1.8,0.1,2.6,0.4
			c0.8,0.3,1.4,0.7,2,1.3s1,1.2,1.2,2c0.3,0.8,0.4,1.7,0.4,2.7s-0.1,1.9-0.4,2.7c-0.3,0.8-0.7,1.5-1.2,2c-0.5,0.5-1.2,1-2,1.3
			c-0.8,0.3-1.6,0.4-2.6,0.4s-1.8-0.1-2.6-0.4c-0.8-0.3-1.4-0.7-2-1.3c-0.5-0.5-1-1.2-1.3-2S78.2,22.8,78.2,21.8z M82.1,21.8
			c0,1.1,0.2,2,0.6,2.5c0.4,0.5,1,0.8,1.8,0.8s1.4-0.3,1.8-0.8c0.4-0.5,0.6-1.4,0.6-2.5s-0.2-2-0.6-2.5s-1-0.8-1.8-0.8
			s-1.4,0.3-1.8,0.8C82.3,19.8,82.1,20.7,82.1,21.8z"/>
		<path class="st1" d="M92.6,15.7h3.9v8.9h5.3v3.2h-9.2V15.7z"/>
		<path class="st1" d="M106.4,23.4l-4.5-7.6h4.3l2.1,4.1l2.1-4.1h4.2l-4.3,7.6v4.5h-3.9V23.4z"/>
		<path class="st1" d="M118.7,15.7h3.9l4.2,12.1H123l-0.5-1.6h-3.8l-0.5,1.6h-3.8L118.7,15.7z M121.9,23.7l-1.2-4.2l-1.2,4.2H121.9z
			"/>
		<path class="st1" d="M128,27.8V15.7h4.7l1.7,6c0,0.2,0.2,0.7,0.4,1.8c0.1-0.4,0.2-0.8,0.2-1.1s0.1-0.5,0.2-0.7l1.7-6h4.7v12.1
			h-3.5l0-5.9c0-0.2,0-0.4,0-0.8s0-0.8,0-1.4c-0.1,0.5-0.2,1-0.3,1.3s-0.2,0.6-0.2,0.8l-1.5,5.9h-2.7l-1.5-5.8
			c-0.1-0.3-0.2-0.7-0.2-1.1c-0.1-0.4-0.2-0.8-0.2-1.2c0,1,0.1,1.8,0.1,2.2v5.8H128z"/>
		<path class="st1" d="M143.4,21.8c0-1,0.1-1.9,0.4-2.7c0.3-0.8,0.7-1.4,1.3-2s1.2-1,2-1.3c0.8-0.3,1.6-0.4,2.6-0.4s1.8,0.1,2.6,0.4
			c0.8,0.3,1.4,0.7,2,1.3s1,1.2,1.2,2c0.3,0.8,0.4,1.7,0.4,2.7s-0.1,1.9-0.4,2.7c-0.3,0.8-0.7,1.5-1.2,2c-0.5,0.5-1.2,1-2,1.3
			c-0.8,0.3-1.6,0.4-2.6,0.4s-1.8-0.1-2.6-0.4c-0.8-0.3-1.4-0.7-2-1.3c-0.5-0.5-1-1.2-1.3-2S143.4,22.8,143.4,21.8z M147.3,21.8
			c0,1.1,0.2,2,0.6,2.5c0.4,0.5,1,0.8,1.8,0.8s1.4-0.3,1.8-0.8c0.4-0.5,0.6-1.4,0.6-2.5s-0.2-2-0.6-2.5s-1-0.8-1.8-0.8
			s-1.4,0.3-1.8,0.8C147.5,19.8,147.3,20.7,147.3,21.8z"/>
		<path class="st1" d="M157.7,15.7h3.8v4l3.5-4h4.5l-4.3,4.5l4.9,7.6h-4.6l-3-4.8l-1,1v3.8h-3.8V15.7z"/>
	</g>
	<g>
		<path class="st1" d="M30.1,13.5V3.4H36v2h-3.4v1.9h3.1v2h-3.1v2.2H36v2.1H30.1z M31.9,2.5l1.4-1.9h2.1l-2.5,1.9H31.9z"/>
		<path class="st1" d="M37.6,13.5V3.4h2.9c0.7,0,1.3,0,1.6,0.1c0.7,0.1,1.1,0.2,1.5,0.5c0.6,0.5,0.9,1.2,0.9,2.1
			c0,1.1-0.5,1.9-1.4,2.4c0.8,0.3,1.2,1.1,1.2,2.3c0,0,0,0,0,0c0,0.2,0,0.3,0,0.6c0,1.1,0.2,1.8,0.6,2.1h-3
			c-0.1-0.4-0.2-0.9-0.2-1.4c0-0.1,0-0.3,0-0.5s0-0.4,0-0.5c0-0.5-0.1-0.9-0.2-1.1c-0.2-0.3-0.5-0.5-1-0.5h-0.5v4H37.6z M40.1,7.6
			c0,0,0.1,0,0.2,0c0.1,0,0.1,0,0.2,0c0.5,0,0.9-0.1,1.1-0.3c0.2-0.2,0.3-0.5,0.3-1c0-0.5-0.1-0.8-0.4-1c-0.2-0.2-0.6-0.2-1.1-0.2
			c0,0-0.1,0-0.2,0s-0.1,0-0.2,0V7.6z"/>
		<path class="st1" d="M46.1,13.5V3.4H52v2h-3.4v1.9h3.1v2h-3.1v2.2H52v2.1H46.1z"/>
		<path class="st1" d="M54.9,13.5V5.3h-2v-2h6.7v2h-2.1v8.1H54.9z"/>
		<path class="st1" d="M62.3,13.5V5.3h-2v-2H67v2h-2.1v8.1H62.3z"/>
		<path class="st1" d="M67.7,10H70v0.3c0,0.5,0,0.8,0.1,1c0.1,0.3,0.4,0.5,0.8,0.5c0.6,0,0.9-0.3,0.9-1c0-0.5-0.4-1-1.1-1.4
			c-0.1,0-0.2-0.1-0.3-0.2c0,0-0.1,0-0.1-0.1c-1-0.6-1.7-1.1-1.9-1.4C68.2,7.6,68,7.3,67.9,7c-0.1-0.3-0.1-0.6-0.1-1
			c0-0.9,0.3-1.6,0.8-2.1c0.6-0.5,1.3-0.7,2.3-0.7c1,0,1.8,0.2,2.4,0.7c0.6,0.5,0.9,1.2,0.9,2.2c0,0,0,0.1,0,0.2c0,0.1,0,0.1,0,0.2
			h-2.3V6.2c0-0.9-0.3-1.3-0.9-1.3c-0.5,0-0.8,0.3-0.8,0.9c0,0.4,0.4,0.9,1.2,1.4c0.1,0.1,0.3,0.2,0.6,0.4c0.9,0.5,1.5,1,1.7,1.3
			c0.3,0.5,0.5,1.1,0.5,1.8c0,1-0.3,1.8-0.8,2.3c-0.6,0.6-1.4,0.8-2.4,0.8c-2.2,0-3.3-1-3.3-3.1C67.6,10.4,67.7,10.3,67.7,10z"/>
		<path class="st1" d="M75.6,13.5V3.4h5.9v2h-3.4v1.9h3.1v2h-3.1v2.2h3.4v2.1H75.6z M77.4,2.5l1.4-1.9h2.1l-2.5,1.9H77.4z"/>
		<path class="st1" d="M89.8,7.9v5.5H88l-0.1-0.6c-0.5,0.5-1.1,0.8-1.9,0.8c-0.8,0-1.4-0.2-1.9-0.6c-0.5-0.4-0.8-1-1-1.7
			c-0.1-0.6-0.2-1.6-0.2-3c0-2,0.2-3.2,0.6-3.8c0.6-0.9,1.6-1.3,3-1.3c2.2,0,3.2,1.1,3.2,3.2c0,0,0,0.1,0,0.2c0,0.1,0,0.1,0,0.2
			h-2.4V6.6C87.3,5.5,87,5,86.4,5c-0.5,0-0.8,0.4-0.9,1.1c0,0.2,0,0.7,0,1.5v1.7c0,0.9,0,1.4,0,1.5c0.1,0.7,0.4,1,0.9,1
			c0.7,0,1-0.5,1-1.6c0-0.2,0-0.4,0-0.5h-1V7.9H89.8z"/>
		<path class="st1" d="M91.4,13.5V3.4H94v10.1H91.4z"/>
		<path class="st1" d="M99.6,13.5V3.4h5.9v2h-3.4v1.8h3.1v2h-3.1v4.3H99.6z"/>
		<path class="st1" d="M107.1,13.5V3.4h5.9v2h-3.4v1.9h3.1v2h-3.1v2.2h3.4v2.1H107.1z"/>
		<path class="st1" d="M120.2,13.5h-5.6V3.4h2.5v8.1h3.1V13.5z"/>
		<path class="st1" d="M121.3,13.5V3.4h2.5v4.2l1.9-4.2h2.6L126,7.8l2.4,5.7h-2.7l-1.3-3.7l-0.6,1v2.7H121.3z"/>
		<path class="st1" d="M129.1,13.5V3.4h5.9v2h-3.4v1.9h3.1v2h-3.1v2.2h3.4v2.1H129.1z M130.9,2.5l1.4-1.9h2.1l-2.5,1.9H130.9z"/>
		<path class="st1" d="M136.3,10h2.3v0.3c0,0.5,0,0.8,0.1,1c0.1,0.3,0.4,0.5,0.8,0.5c0.6,0,0.9-0.3,0.9-1c0-0.5-0.4-1-1.1-1.4
			c-0.1,0-0.2-0.1-0.3-0.2c0,0-0.1,0-0.1-0.1c-1-0.6-1.7-1.1-1.9-1.4c-0.2-0.2-0.3-0.5-0.4-0.8c-0.1-0.3-0.1-0.6-0.1-1
			c0-0.9,0.3-1.6,0.8-2.1c0.6-0.5,1.3-0.7,2.3-0.7c1,0,1.8,0.2,2.4,0.7c0.6,0.5,0.9,1.2,0.9,2.2c0,0,0,0.1,0,0.2c0,0.1,0,0.1,0,0.2
			h-2.3V6.2c0-0.9-0.3-1.3-0.9-1.3c-0.5,0-0.8,0.3-0.8,0.9c0,0.4,0.4,0.9,1.2,1.4c0.1,0.1,0.3,0.2,0.6,0.4c0.9,0.5,1.5,1,1.7,1.3
			c0.3,0.5,0.5,1.1,0.5,1.8c0,1-0.3,1.8-0.8,2.3c-0.6,0.6-1.4,0.8-2.4,0.8c-2.2,0-3.3-1-3.3-3.1C136.2,10.4,136.2,10.3,136.3,10z"/>
		<path class="st1" d="M143.8,13.5v-1.9l3.3-6.3H144V3.4h5.9v1.8l-3.3,6.3h3.5v2.1H143.8z"/>
		<path class="st1" d="M151.4,13.5V3.4h2.5v10.1H151.4z M151.6,2.5l1.4-1.9h2.1l-2.5,1.9H151.6z"/>
		<path class="st1" d="M157.1,13.5V5.3h-2v-2h6.7v2h-2.1v8.1H157.1z"/>
		<path class="st1" d="M162.6,8.4c0-2.1,0.2-3.4,0.6-4c0.6-0.9,1.6-1.3,3-1.3c1.4,0,2.4,0.4,3,1.3c0.3,0.4,0.5,1.1,0.6,1.9
			c0,0.4,0.1,1.1,0.1,2c0,0.9,0,1.6-0.1,2c-0.1,0.9-0.3,1.5-0.6,1.9c-0.6,0.9-1.6,1.3-3,1.3c-1.4,0-2.4-0.4-3-1.3
			C162.8,11.8,162.6,10.5,162.6,8.4z M167.3,9.3V7.5c0-0.9,0-1.4,0-1.5c-0.1-0.6-0.5-0.9-1-0.9c-0.5,0-0.9,0.3-1,1
			c0,0.2,0,0.7,0,1.5v1.8c0,0.8,0,1.4,0,1.5c0.1,0.6,0.5,0.9,1,0.9c0.5,0,0.9-0.3,1-0.9C167.3,10.7,167.3,10.2,167.3,9.3z"/>
		<path class="st1" d="M164.7,2.4l0.9-1.9h1.8l-2,1.9H164.7z M166.8,2.4l1.1-1.9h1.9l-2.2,1.9H166.8z"/>
	</g>
</g>
</svg>
